<?xml version="1.0" encoding="UTF-8" standalone="no"?>
<svg xmlns:inkscape="http://www.inkscape.org/namespaces/inkscape" xmlns:sodipodi="http://sodipodi.sourceforge.net/DTD/sodipodi-0.dtd" xmlns="http://www.w3.org/2000/svg" xmlns:svg="http://www.w3.org/2000/svg" version="1.1" id="svg1" width="699.99957" height="699.99402" viewBox="0 0 699.99957 699.99404">
  <defs id="defs1"></defs>
  <g id="g1" transform="translate(-68.432,-232.844)">
    <g id="g2" transform="translate(21.580464,21.580346)">
      <path id="path1" d="m 297.637,656.035 c -129.836,0 -235.09,-105.254 -235.09,-235.09 0,-129.84 105.254,-235.093 235.09,-235.093 129.84,0 235.093,105.253 235.093,235.093 0,129.836 -105.253,235.09 -235.093,235.09 m 0,-481.402 c -136.035,0 -246.313,110.277 -246.313,246.312 0,136.035 110.278,246.313 246.313,246.313 136.035,0 246.316,-110.278 246.316,-246.313 0,-136.035 -110.281,-246.312 -246.316,-246.312" style="fill:#293748;fill-opacity:1;fill-rule:nonzero;stroke:none" transform="scale(1.3333333)"></path>
      <path id="path2" d="m 297.637,597.688 c -97.614,0 -176.742,-79.129 -176.742,-176.743 0,-97.613 79.128,-176.742 176.742,-176.742 97.613,0 176.742,79.129 176.742,176.742 0,97.614 -79.129,176.743 -176.742,176.743 m 0,-402.657 c -124.77,0 -225.914,101.145 -225.914,225.914 0,124.77 101.144,225.914 225.914,225.914 124.769,0 225.914,-101.144 225.914,-225.914 0,-124.769 -101.145,-225.914 -225.914,-225.914" style="fill:#293748;fill-opacity:1;fill-rule:nonzero;stroke:none" transform="scale(1.3333333)"></path>
      <path id="path3" d="m 251.57,359.168 -15.711,15.711 c 2.739,2.992 22.508,23.324 40.832,42.883 1.766,-1.391 3.848,-3.121 6.157,-5.098 -17.438,-18.519 -35.836,-37.48 -38.414,-40.32 l 4.601,-4.598 c 2.863,2.594 22.106,21.27 40.766,38.828 1.906,-1.699 3.887,-3.476 5.957,-5.355 -19.953,-18.656 -41.129,-39.25 -44.188,-42.051 z m 66.731,62.621 c -1.906,2.094 -3.715,4.102 -5.449,6.043 4.984,4.426 9.043,7.852 11.503,9.594 6.258,4.426 14.372,8.887 22.52,12.375 1.199,0.512 2.031,1.621 2.184,2.914 0.156,1.293 -0.399,2.566 -1.442,3.344 -3.375,2.511 -7.308,5.5 -8.34,6.527 -1.172,1.176 -4.086,5.012 -6.531,8.312 -0.777,1.047 -2.051,1.598 -3.344,1.446 -1.293,-0.153 -2.406,-0.985 -2.922,-2.18 -3.488,-8.141 -7.941,-16.246 -12.363,-22.496 -1.672,-2.363 -4.91,-6.215 -9.078,-10.918 -2.09,2.465 -3.863,4.633 -5.215,6.41 3.414,3.942 6.18,7.285 7.762,9.52 16.273,22.996 21.449,48.484 19.027,50.902 l -7.461,7.465 7.711,7.711 c 0,0 -0.898,4.484 1.075,6.453 l 2.375,2.379 c 0,0 1.527,1.523 2.378,2.375 1.969,1.973 6.454,1.074 6.454,1.074 l 7.707,7.711 7.464,-7.465 c 1.227,-1.226 5.434,-0.672 6.739,-0.465 12.383,1.91 25.48,-1.894 35.019,-11.433 9.539,-9.543 13.348,-22.641 11.434,-35.024 -0.203,-1.304 -0.758,-5.508 0.469,-6.734 l 7.464,-7.465 -7.711,-7.711 c 0,0 0.895,-4.48 -1.078,-6.453 -0.847,-0.852 -2.375,-2.379 -2.375,-2.379 l -2.375,-2.375 c -1.972,-1.973 -6.453,-1.074 -6.453,-1.074 l -7.711,-7.711 c 0,0 -5.043,5.043 -7.465,7.465 -2.421,2.418 -27.906,-2.758 -50.902,-19.028 -2.527,-1.789 -6.422,-5.039 -11.07,-9.109 z m 48.996,37.449 c 8.027,0 16.055,3.063 22.18,9.188 12.25,12.25 12.25,32.109 0,44.359 -12.25,12.25 -32.11,12.25 -44.36,0 -12.254,-12.25 -12.25,-32.109 0,-44.359 6.125,-6.125 14.153,-9.188 22.18,-9.188 z m 0,2.852 c -7.297,0 -14.598,2.785 -20.164,8.351 -11.137,11.137 -11.137,29.192 0,40.329 11.137,11.136 29.191,11.136 40.328,0 11.137,-11.137 11.137,-29.192 0,-40.329 -5.57,-5.566 -12.867,-8.351 -20.164,-8.351 z m 0,4.66 c 6.105,0 12.211,2.328 16.867,6.988 9.316,9.317 9.316,24.422 0,33.739 -9.316,9.316 -24.422,9.316 -33.738,0 -9.317,-9.317 -9.317,-24.422 0,-33.743 4.66,-4.656 10.765,-6.984 16.871,-6.984 z" style="fill:#293748;fill-opacity:1;fill-rule:nonzero;stroke:none" transform="scale(1.3333333)"></path>
      <path id="path4" d="m 375.793,445.176 6.727,-6.723 2.957,2.957 -6.723,6.723 z" style="fill:#293748;fill-opacity:1;fill-rule:nonzero;stroke:none" transform="scale(1.3333333)"></path>
      <path id="path5" d="m 409.766,479.148 6.726,-6.722 2.957,2.957 -6.722,6.722 z" style="fill:#293748;fill-opacity:1;fill-rule:nonzero;stroke:none" transform="scale(1.3333333)"></path>
      <path id="path6" d="m 321.867,499.105 -6.722,6.723 2.957,2.957 6.722,-6.722 z" style="fill:#293748;fill-opacity:1;fill-rule:nonzero;stroke:none" transform="scale(1.3333333)"></path>
      <path id="path7" d="m 355.84,533.078 -6.727,6.723 2.961,2.957 6.723,-6.723 z" style="fill:#293748;fill-opacity:1;fill-rule:nonzero;stroke:none" transform="scale(1.3333333)"></path>
      <path id="path8" d="m 242.551,308.359 -57.496,57.493 39.371,39.371 10.047,-10.032 -3.258,-3.14 c -5.883,-5.879 -4.195,-12.328 1.262,-17.785 5.457,-5.453 9.238,-9.246 9.238,-9.246 0,0 3.793,-3.782 9.25,-9.239 5.457,-5.457 11.473,-7.488 17.355,-1.605 l 3.567,3.597 10.031,-10.043 z m -12.371,33.746 c 2.914,0 5.828,1.11 8.05,3.333 4.442,4.445 4.442,11.652 0,16.093 -4.445,4.446 -11.652,4.446 -16.097,0 -4.442,-4.441 -4.442,-11.648 0,-16.093 2.222,-2.223 5.137,-3.333 8.047,-3.333 z" style="fill:#293748;fill-opacity:1;fill-rule:nonzero;stroke:none" transform="scale(1.3333333)"></path>
      <path id="path9" d="m 224.594,347.898 c 3.086,-3.089 8.09,-3.089 11.176,0 3.085,3.086 3.085,8.09 0,11.176 -3.086,3.086 -8.09,3.086 -11.176,0 -3.086,-3.086 -3.086,-8.09 0,-11.176" style="fill:#293748;fill-opacity:1;fill-rule:nonzero;stroke:none" transform="scale(1.3333333)"></path>
      <path id="path10" d="m 240.402,306.211 -57.492,57.492 -1.722,-1.719 57.492,-57.496 z" style="fill:#293748;fill-opacity:1;fill-rule:nonzero;stroke:none" transform="scale(1.3333333)"></path>
      <path id="path11" d="m 170.273,351.07 28.747,-28.75 28.746,-28.742 4.773,4.774 -57.492,57.492 z" style="fill:#293748;fill-opacity:1;fill-rule:nonzero;stroke:none" transform="scale(1.3333333)"></path>
      <path id="path12" d="m 234.516,300.328 1.722,1.723 -57.492,57.492 -1.723,-1.723 z" style="fill:#293748;fill-opacity:1;fill-rule:nonzero;stroke:none" transform="scale(1.3333333)"></path>
      <path id="path13" d="m 343.707,359.168 c -5.223,4.777 -63.258,61.43 -77.805,71.723 -22.996,16.273 -48.484,21.453 -50.902,19.031 l -7.465,-7.465 -7.711,7.711 c 0,0 -4.48,-0.895 -6.453,1.074 l -2.375,2.379 c 0,0 -1.523,1.524 -2.375,2.375 -1.976,1.973 -1.078,6.453 -1.078,6.453 l -7.711,7.711 7.465,7.465 c 1.226,1.227 0.672,5.43 0.465,6.734 -1.91,12.383 1.894,25.485 11.433,35.024 9.543,9.539 22.641,13.347 35.024,11.433 1.304,-0.207 5.508,-0.757 6.738,0.465 l 7.461,7.465 7.711,-7.711 c 0,0 4.484,0.899 6.453,-1.074 0.852,-0.852 2.379,-2.375 2.379,-2.375 l 2.375,-2.375 c 1.973,-1.973 1.074,-6.457 1.074,-6.457 l 7.711,-7.711 -7.465,-7.465 c -2.418,-2.418 2.758,-27.902 19.032,-50.898 10.292,-14.547 66.949,-72.586 71.726,-77.805 z m 2.535,8.574 4.594,4.598 c -4.625,5.109 -60.481,62.324 -69.68,75.324 -4.426,6.254 -8.883,14.371 -12.375,22.52 -0.511,1.195 -1.621,2.027 -2.914,2.179 -1.293,0.157 -2.566,-0.394 -3.344,-1.437 -2.511,-3.375 -5.5,-7.313 -6.527,-8.34 -1.176,-1.176 -5.012,-4.09 -8.312,-6.535 -1.047,-0.774 -1.598,-2.051 -1.446,-3.344 0.153,-1.293 0.985,-2.406 2.18,-2.918 8.141,-3.488 16.25,-7.941 22.5,-12.363 13,-9.199 70.215,-65.055 75.324,-69.684 z m -118.265,91.492 c 8.027,0 16.054,3.063 22.179,9.188 12.25,12.25 12.25,32.113 0,44.363 -12.25,12.25 -32.109,12.25 -44.359,0 -12.25,-12.25 -12.25,-32.113 0,-44.363 6.125,-6.125 14.152,-9.188 22.18,-9.188 z m 0,2.852 c -7.297,0 -14.594,2.785 -20.164,8.352 -11.137,11.136 -11.137,29.191 0,40.328 11.136,11.136 29.191,11.136 40.328,0 11.136,-11.137 11.136,-29.192 0,-40.328 -5.567,-5.567 -12.868,-8.352 -20.164,-8.352 z m 0,4.66 c 6.105,0 12.211,2.328 16.871,6.988 9.312,9.317 9.316,24.422 0,33.739 -9.317,9.316 -24.422,9.316 -33.743,0 -9.312,-9.317 -9.312,-24.422 0,-33.739 4.661,-4.66 10.766,-6.988 16.872,-6.988 z" style="fill:#293748;fill-opacity:1;fill-rule:nonzero;stroke:none" transform="scale(1.3333333)"></path>
      <path id="path14" d="m 273.406,499.102 6.723,6.722 -2.957,2.961 -6.723,-6.726 z" style="fill:#293748;fill-opacity:1;fill-rule:nonzero;stroke:none" transform="scale(1.3333333)"></path>
      <path id="path15" d="m 239.434,533.074 6.722,6.723 -2.957,2.961 -6.722,-6.727 z" style="fill:#293748;fill-opacity:1;fill-rule:nonzero;stroke:none" transform="scale(1.3333333)"></path>
      <path id="path16" d="m 219.48,445.172 -6.726,-6.723 -2.957,2.957 6.723,6.727 z" style="fill:#293748;fill-opacity:1;fill-rule:nonzero;stroke:none" transform="scale(1.3333333)"></path>
      <path id="path17" d="m 185.508,479.148 -6.727,-6.726 -2.957,2.957 6.723,6.726 z" style="fill:#293748;fill-opacity:1;fill-rule:nonzero;stroke:none" transform="scale(1.3333333)"></path>
      <path id="path18" d="m 352.73,308.363 -39.371,39.371 10.032,10.043 3.14,-3.257 c 5.879,-5.883 12.328,-4.192 17.785,1.265 5.454,5.453 9.247,9.235 9.247,9.235 0,0 3.781,3.796 9.238,9.253 5.457,5.457 7.488,11.469 1.605,17.352 l -3.597,3.57 10.043,10.032 39.371,-39.372 z m 12.368,33.746 c 2.914,0 5.824,1.11 8.047,3.332 4.445,4.442 4.445,11.649 0,16.094 -4.446,4.445 -11.649,4.445 -16.094,0 -4.442,-4.445 -4.442,-11.652 0,-16.094 2.222,-2.222 5.133,-3.332 8.047,-3.332 z" style="fill:#293748;fill-opacity:1;fill-rule:nonzero;stroke:none" transform="scale(1.3333333)"></path>
      <path id="path19" d="m 370.684,347.898 c 3.089,3.086 3.089,8.09 0,11.18 -3.086,3.086 -8.09,3.086 -11.176,0 -3.086,-3.09 -3.086,-8.094 0,-11.18 3.086,-3.085 8.09,-3.085 11.176,0" style="fill:#293748;fill-opacity:1;fill-rule:nonzero;stroke:none" transform="scale(1.3333333)"></path>
      <path id="path20" d="m 412.371,363.707 -57.492,-57.492 1.719,-1.723 57.496,57.492 z" style="fill:#293748;fill-opacity:1;fill-rule:nonzero;stroke:none" transform="scale(1.3333333)"></path>
      <path id="path21" d="m 367.512,293.578 28.75,28.746 28.746,28.746 -4.778,4.778 -57.492,-57.493 z" style="fill:#293748;fill-opacity:1;fill-rule:nonzero;stroke:none" transform="scale(1.3333333)"></path>
      <path id="path22" d="m 418.254,357.824 -1.719,1.719 -57.496,-57.492 1.723,-1.723 z" style="fill:#293748;fill-opacity:1;fill-rule:nonzero;stroke:none" transform="scale(1.3333333)"></path>
      <text id="text22" xml:space="preserve" transform="matrix(1.0570014,-0.81272738,0.81272738,1.0570014,230.80988,385.23041)">
        <tspan id="tspan22" style="font-variant:normal;font-weight:700;font-size:55px;font-family:Verdana;writing-mode:lr-tb;fill:#ffffff;fill-opacity:1;fill-rule:nonzero;stroke:none" x="0" y="0">a</tspan>
      </text>
      <text id="text23" xml:space="preserve" transform="matrix(1.1997634,-0.58167488,0.58167488,1.1997634,269.77425,355.26149)">
        <tspan id="tspan23" style="font-variant:normal;font-weight:700;font-size:55px;font-family:Verdana;writing-mode:lr-tb;fill:#ffffff;fill-opacity:1;fill-rule:nonzero;stroke:none" x="0" y="0">k</tspan>
      </text>
      <text id="text24" xml:space="preserve" transform="matrix(1.2931696,-0.32479264,0.32479264,1.2931696,314.27496,333.71868)">
        <tspan id="tspan24" style="font-variant:normal;font-weight:700;font-size:55px;font-family:Verdana;writing-mode:lr-tb;fill:#ffffff;fill-opacity:1;fill-rule:nonzero;stroke:none" x="0" y="0">a</tspan>
      </text>
      <text id="text25" xml:space="preserve" transform="matrix(1.3328377,-0.03635013,0.03635013,1.3328377,361.93979,321.37591)">
        <tspan id="tspan25" style="font-variant:normal;font-weight:700;font-size:55px;font-family:Verdana;writing-mode:lr-tb;fill:#ffffff;fill-opacity:1;fill-rule:nonzero;stroke:none" x="0" y="0">K</tspan>
      </text>
      <text id="text26" xml:space="preserve" transform="matrix(1.3152978,0.21856232,-0.21856232,1.3152978,418.5731,320.78567)">
        <tspan id="tspan26" style="font-variant:normal;font-weight:700;font-size:55px;font-family:Verdana;writing-mode:lr-tb;fill:#ffffff;fill-opacity:1;fill-rule:nonzero;stroke:none" x="0" y="0">r</tspan>
      </text>
      <text id="text27" xml:space="preserve" transform="matrix(1.2555099,0.44885697,-0.44885697,1.2555099,454.85365,326.25949)">
        <tspan id="tspan27" style="font-variant:normal;font-weight:700;font-size:55px;font-family:Verdana;writing-mode:lr-tb;fill:#ffffff;fill-opacity:1;fill-rule:nonzero;stroke:none" x="0" y="0">a</tspan>
      </text>
      <text id="text28" xml:space="preserve" transform="matrix(1.1635453,0.65110689,-0.65110689,1.1635453,500.75003,343.47648)">
        <tspan id="tspan28" style="font-variant:normal;font-weight:700;font-size:55px;font-family:Verdana;writing-mode:lr-tb;fill:#ffffff;fill-opacity:1;fill-rule:nonzero;stroke:none" x="0" y="0">f</tspan>
      </text>
      <text id="text29" xml:space="preserve" transform="matrix(1.0665994,0.8000897,-0.8000897,1.0665994,527.83072,358.5447)">
        <tspan id="tspan29" style="font-variant:normal;font-weight:700;font-size:55px;font-family:Verdana;writing-mode:lr-tb;fill:#ffffff;fill-opacity:1;fill-rule:nonzero;stroke:none" x="0" y="0">t</tspan>
      </text>
      <text id="text30" xml:space="preserve" transform="matrix(1.0039283,0.87744277,-0.87744277,1.0039283,192.37609,761.44609)">
        <tspan id="tspan30" style="font-variant:normal;font-weight:700;font-size:43.3376px;font-family:Verdana;writing-mode:lr-tb;fill:#ffffff;fill-opacity:1;fill-rule:nonzero;stroke:none" x="0" y="0">B</tspan>
      </text>
      <text id="text31" xml:space="preserve" transform="matrix(1.1069084,0.74332466,-0.74332466,1.1069084,225.84855,790.0597)">
        <tspan id="tspan31" style="font-variant:normal;font-weight:700;font-size:43.3376px;font-family:Verdana;writing-mode:lr-tb;fill:#ffffff;fill-opacity:1;fill-rule:nonzero;stroke:none" x="0" y="0">r</tspan>
      </text>
      <text id="text32" xml:space="preserve" transform="matrix(1.1867405,0.60780315,-0.60780315,1.1867405,249.62592,806.37543)">
        <tspan id="tspan32" style="font-variant:normal;font-weight:700;font-size:43.3376px;font-family:Verdana;writing-mode:lr-tb;fill:#ffffff;fill-opacity:1;fill-rule:nonzero;stroke:none" x="0" y="0">a</tspan>
      </text>
      <text id="text33" xml:space="preserve" transform="matrix(1.2601497,0.43566106,-0.43566106,1.2601497,284.00297,824.08229)">
        <tspan id="tspan33" style="font-variant:normal;font-weight:700;font-size:43.3376px;font-family:Verdana;writing-mode:lr-tb;fill:#ffffff;fill-opacity:1;fill-rule:nonzero;stroke:none" x="0" y="0">u</tspan>
      </text>
      <text id="text34" xml:space="preserve" transform="matrix(1.309918,0.24878207,-0.24878207,1.309918,323.00609,837.55835)">
        <tspan id="tspan34" style="font-variant:normal;font-weight:700;font-size:43.3376px;font-family:Verdana;writing-mode:lr-tb;fill:#ffffff;fill-opacity:1;fill-rule:nonzero;stroke:none" x="0" y="0">n</tspan>
      </text>
      <text id="text35" xml:space="preserve" transform="matrix(1.3312575,0.07437149,-0.07437149,1.3312575,363.55834,845.01682)">
        <tspan id="tspan35" style="font-variant:normal;font-weight:700;font-size:43.3376px;font-family:Verdana;writing-mode:lr-tb;fill:#ffffff;fill-opacity:1;fill-rule:nonzero;stroke:none" x="0" y="0">s</tspan>
      </text>
      <text id="text36" xml:space="preserve" transform="matrix(1.3307663,-0.08269773,0.08269773,1.3307663,397.85525,846.92103)">
        <tspan id="tspan36" style="font-variant:normal;font-weight:700;font-size:43.3376px;font-family:Verdana;writing-mode:lr-tb;fill:#ffffff;fill-opacity:1;fill-rule:nonzero;stroke:none" x="0" y="0">c</tspan>
      </text>
      <text id="text37" xml:space="preserve" transform="matrix(1.3084656,-0.25631137,0.25631137,1.3084656,431.84559,845.05092)">
        <tspan id="tspan37" style="font-variant:normal;font-weight:700;font-size:43.3376px;font-family:Verdana;writing-mode:lr-tb;fill:#ffffff;fill-opacity:1;fill-rule:nonzero;stroke:none" x="0" y="0">h</tspan>
      </text>
      <text id="text38" xml:space="preserve" transform="matrix(1.2450847,-0.47701338,0.47701338,1.2450847,472.57102,837.74041)">
        <tspan id="tspan38" style="font-variant:normal;font-weight:700;font-size:43.3376px;font-family:Verdana;writing-mode:lr-tb;fill:#ffffff;fill-opacity:1;fill-rule:nonzero;stroke:none" x="0" y="0">w</tspan>
      </text>
      <text id="text39" xml:space="preserve" transform="matrix(1.1484447,-0.67738654,0.67738654,1.1484447,525.2416,816.73123)">
        <tspan id="tspan39" style="font-variant:normal;font-weight:700;font-size:43.3376px;font-family:Verdana;writing-mode:lr-tb;fill:#ffffff;fill-opacity:1;fill-rule:nonzero;stroke:none" x="0" y="0">e</tspan>
      </text>
      <text id="text40" xml:space="preserve" transform="matrix(1.0738105,-0.79038518,0.79038518,1.0738105,558.05212,796.82703)">
        <tspan id="tspan40" style="font-variant:normal;font-weight:700;font-size:43.3376px;font-family:Verdana;writing-mode:lr-tb;fill:#ffffff;fill-opacity:1;fill-rule:nonzero;stroke:none" x="0" y="0">i</tspan>
      </text>
      <text id="text41" xml:space="preserve" transform="matrix(0.98526497,-0.89834888,0.89834888,0.98526497,574.3217,785.51921)">
        <tspan id="tspan41" style="font-variant:normal;font-weight:700;font-size:43.3376px;font-family:Verdana;writing-mode:lr-tb;fill:#ffffff;fill-opacity:1;fill-rule:nonzero;stroke:none" x="0" y="0">g</tspan>
      </text>
    </g>
  </g>
</svg>
